<?xml version="1.0" encoding="UTF-8" standalone="no"?>
<!-- Created with Inkscape (http://www.inkscape.org/) -->

<svg
   width="107.91042mm"
   height="70.272247mm"
   viewBox="0 0 107.91042 70.272247"
   version="1.1"
   id="svg1744"
   inkscape:version="1.2.2 (732a01da63, 2022-12-09, custom)"
   sodipodi:docname="logoGreen.svg"
   inkscape:export-filename="../../../../../home/rjpg/Documentos/ByteFlow/images/logo.png"
   inkscape:export-xdpi="96"
   inkscape:export-ydpi="96"
   xmlns:inkscape="http://www.inkscape.org/namespaces/inkscape"
   xmlns:sodipodi="http://sodipodi.sourceforge.net/DTD/sodipodi-0.dtd"
   xmlns="http://www.w3.org/2000/svg"
   xmlns:svg="http://www.w3.org/2000/svg">
  <sodipodi:namedview
     id="namedview1746"
     pagecolor="#ffffff"
     bordercolor="#666666"
     borderopacity="1.0"
     inkscape:showpageshadow="2"
     inkscape:pageopacity="0.0"
     inkscape:pagecheckerboard="0"
     inkscape:deskcolor="#d1d1d1"
     inkscape:document-units="mm"
     showgrid="false"
     inkscape:zoom="0.75722503"
     inkscape:cx="-51.503844"
     inkscape:cy="32.354979"
     inkscape:window-width="1846"
     inkscape:window-height="1016"
     inkscape:window-x="74"
     inkscape:window-y="27"
     inkscape:window-maximized="1"
     inkscape:current-layer="line2d_33" />
  <defs
     id="defs1741">
    <clipPath
       id="p2872ca5c69">
      <rect
         height="217.44"
         width="334.79999"
         x="44.845314"
         y="25.360001"
         id="rect521" />
    </clipPath>
    <clipPath
       id="clipPath1156">
      <rect
         height="217.44"
         width="334.79999"
         x="44.845314"
         y="25.360001"
         id="rect1154" />
    </clipPath>
    <clipPath
       id="clipPath1160">
      <rect
         height="217.44"
         width="334.79999"
         x="44.845314"
         y="25.360001"
         id="rect1158" />
    </clipPath>
    <clipPath
       id="clipPath1164">
      <rect
         height="217.44"
         width="334.79999"
         x="44.845314"
         y="25.360001"
         id="rect1162" />
    </clipPath>
    <clipPath
       id="clipPath1168">
      <rect
         height="217.44"
         width="334.79999"
         x="44.845314"
         y="25.360001"
         id="rect1166" />
    </clipPath>
    <clipPath
       id="clipPath1172">
      <rect
         height="217.44"
         width="334.79999"
         x="44.845314"
         y="25.360001"
         id="rect1170" />
    </clipPath>
    <clipPath
       id="clipPath1176">
      <rect
         height="217.44"
         width="334.79999"
         x="44.845314"
         y="25.360001"
         id="rect1174" />
    </clipPath>
    <clipPath
       id="clipPath1180">
      <rect
         height="217.44"
         width="334.79999"
         x="44.845314"
         y="25.360001"
         id="rect1178" />
    </clipPath>
    <clipPath
       id="clipPath1184">
      <rect
         height="217.44"
         width="334.79999"
         x="44.845314"
         y="25.360001"
         id="rect1182" />
    </clipPath>
    <clipPath
       id="clipPath1188">
      <rect
         height="217.44"
         width="334.79999"
         x="44.845314"
         y="25.360001"
         id="rect1186" />
    </clipPath>
    <clipPath
       id="clipPath1192">
      <rect
         height="217.44"
         width="334.79999"
         x="44.845314"
         y="25.360001"
         id="rect1190" />
    </clipPath>
    <clipPath
       id="clipPath1196">
      <rect
         height="217.44"
         width="334.79999"
         x="44.845314"
         y="25.360001"
         id="rect1194" />
    </clipPath>
    <clipPath
       id="clipPath1200">
      <rect
         height="217.44"
         width="334.79999"
         x="44.845314"
         y="25.360001"
         id="rect1198" />
    </clipPath>
    <clipPath
       id="clipPath1204">
      <rect
         height="217.44"
         width="334.79999"
         x="44.845314"
         y="25.360001"
         id="rect1202" />
    </clipPath>
    <clipPath
       id="clipPath1208">
      <rect
         height="217.44"
         width="334.79999"
         x="44.845314"
         y="25.360001"
         id="rect1206" />
    </clipPath>
    <clipPath
       id="clipPath1212">
      <rect
         height="217.44"
         width="334.79999"
         x="44.845314"
         y="25.360001"
         id="rect1210" />
    </clipPath>
    <clipPath
       id="clipPath1216">
      <rect
         height="217.44"
         width="334.79999"
         x="44.845314"
         y="25.360001"
         id="rect1214" />
    </clipPath>
    <path
       d="M 0,0 V 3.5"
       id="m63eb05cc5b"
       style="stroke:#000000;stroke-width:0.8" />
    <path
       d="M 10.59375,35.5 H 73.1875 V 27.203125 H 10.59375 Z"
       id="DejaVuSans-2212" />
    <path
       d="M 40.578125,39.3125 Q 47.65625,37.796875 51.625,33 q 3.984375,-4.78125 3.984375,-11.8125 0,-10.78125 -7.421875,-16.703125 -7.421875,-5.90625 -21.09375,-5.90625 -4.578125,0 -9.4375,0.90625 -4.859375,0.90625 -10.03125,2.71875 v 9.515625 q 4.09375,-2.390625 8.96875,-3.609375 4.890625,-1.21875 10.21875,-1.21875 9.265625,0 14.125,3.65625 4.859375,3.65625 4.859375,10.640625 0,6.453125 -4.515625,10.078125 -4.515625,3.640625 -12.5625,3.640625 h -8.5 v 8.109375 h 8.890625 q 7.265625,0 11.125,2.90625 3.859375,2.90625 3.859375,8.375 0,5.609375 -3.984375,8.609375 -3.96875,3.015625 -11.390625,3.015625 -4.0625,0 -8.703125,-0.890625 Q 15.375,64.15625 9.8125,62.3125 v 8.78125 q 5.625,1.5625 10.53125,2.34375 4.90625,0.78125 9.25,0.78125 11.234375,0 17.765625,-5.109375 6.546875,-5.09375 6.546875,-13.78125 0,-6.0625 -3.46875,-10.234375 -3.46875,-4.171875 -9.859375,-5.78125 z"
       id="DejaVuSans-33" />
    <path
       d="M 19.1875,8.296875 H 53.609375 V 0 H 7.328125 v 8.296875 q 5.609375,5.8125 15.296875,15.59375 9.703125,9.796875 12.1875,12.640625 4.734375,5.3125 6.609375,9 1.890625,3.6875 1.890625,7.25 0,5.8125 -4.078125,9.46875 -4.078125,3.671875 -10.625,3.671875 -4.640625,0 -9.796875,-1.609375 -5.140625,-1.609375 -11,-4.890625 v 9.96875 Q 13.765625,71.78125 18.9375,73 q 5.1875,1.21875 9.484375,1.21875 11.328125,0 18.0625,-5.671875 6.734375,-5.65625 6.734375,-15.125 0,-4.5 -1.6875,-8.53125 Q 49.859375,40.875 45.40625,35.40625 44.1875,33.984375 37.640625,27.21875 31.109375,20.453125 19.1875,8.296875 Z"
       id="DejaVuSans-32" />
    <path
       d="m 12.40625,8.296875 h 16.109375 v 55.625 L 10.984375,60.40625 v 8.984375 l 17.4375,3.515625 H 38.28125 V 8.296875 H 54.390625 V 0 H 12.40625 Z"
       id="DejaVuSans-31" />
    <path
       d="m 31.78125,66.40625 q -7.609375,0 -11.453125,-7.5 Q 16.5,51.421875 16.5,36.375 q 0,-14.984375 3.828125,-22.484375 3.84375,-7.5 11.453125,-7.5 7.671875,0 11.5,7.5 3.84375,7.5 3.84375,22.484375 0,15.046875 -3.84375,22.53125 -3.828125,7.5 -11.5,7.5 z m 0,7.8125 q 12.265625,0 18.734375,-9.703125 6.46875,-9.6875 6.46875,-28.140625 0,-18.40625 -6.46875,-28.109375 -6.46875,-9.6875 -18.734375,-9.6875 -12.25,0 -18.71875,9.6875 Q 6.59375,17.96875 6.59375,36.375 q 0,18.453125 6.46875,28.140625 6.46875,9.703125 18.71875,9.703125 z"
       id="DejaVuSans-30" />
    <path
       d="M 0,0 H -3.5"
       id="mcbc63333f1"
       style="stroke:#000000;stroke-width:0.8" />
    <path
       d="M 10.6875,12.40625 H 21 V 0 H 10.6875 Z"
       id="DejaVuSans-2e" />
    <path
       d="m 8.203125,72.90625 h 46.875 V 68.703125 L 28.609375,0 H 18.3125 L 43.21875,64.59375 H 8.203125 Z"
       id="DejaVuSans-37" />
    <path
       d="m 10.796875,72.90625 h 38.71875 v -8.3125 h -29.6875 V 46.734375 q 2.140625,0.734375 4.28125,1.09375 2.15625,0.359375 4.3125,0.359375 Q 40.625,48.1875 47.75,41.5 54.890625,34.8125 54.890625,23.390625 54.890625,11.625 47.5625,5.09375 40.234375,-1.421875 26.90625,-1.421875 q -4.59375,0 -9.359375,0.78125 -4.75,0.78125 -9.828125,2.34375 V 11.625 q 4.390625,-2.390625 9.078125,-3.5625 4.6875,-1.171875 9.90625,-1.171875 8.453125,0 13.375,4.4375 4.9375,4.4375 4.9375,12.0625 0,7.609375 -4.9375,12.046875 -4.921875,4.453125 -13.375,4.453125 -3.953125,0 -7.890625,-0.875 -3.921875,-0.875 -8.015625,-2.734375 z"
       id="DejaVuSans-35" />
    <path
       d="m 24.8125,-5.078125 q -6.25,-10.5 -10.1875,-13.109375 -3.9375,-2.609375 -10.03125,-2.609375 h -7.078125 l 1.5,7.515625 h 5.1875 q 3.75,0 6.390625,2.046875 Q 13.234375,-9.1875 16.5,-3.21875 L 19.28125,2 7.171875,54.6875 h 9.53125 L 25.78125,12.796875 50.875,54.6875 h 9.421875 z"
       id="DejaVuSans-Oblique-79" />
    <path
       d="M 10.59375,45.40625 H 73.1875 V 37.203125 H 10.59375 Z m 0,-19.921875 H 73.1875 V 17.1875 H 10.59375 Z"
       id="DejaVuSans-3d" />
    <path
       d="M 18.3125,70.21875 V 54.6875 h 18.5 v -6.984375 h -18.5 v -29.6875 q 0,-6.6875 1.828125,-8.59375 1.828125,-1.90625 7.453125,-1.90625 H 36.8125 V 0 H 27.59375 Q 17.1875,0 13.234375,3.875 9.28125,7.765625 9.28125,18.015625 v 29.6875 H 2.6875 V 54.6875 h 6.59375 v 15.53125 z"
       id="DejaVuSans-74" />
    <path
       d="m 34.28125,27.484375 q -10.890625,0 -15.09375,-2.484375 -4.203125,-2.484375 -4.203125,-8.5 0,-4.78125 3.15625,-7.59375 3.15625,-2.796875 8.5625,-2.796875 7.484375,0 12,5.296875 4.515625,5.296875 4.515625,14.078125 v 2 z m 17.921875,3.71875 V 0 H 43.21875 v 8.296875 q -3.078125,-4.96875 -7.671875,-7.34375 -4.59375,-2.375 -11.234375,-2.375 -8.390625,0 -13.359375,4.71875 Q 6,8.015625 6,15.921875 q 0,9.21875 6.171875,13.90625 6.1875,4.6875 18.4375,4.6875 H 43.21875 v 0.890625 q 0,6.203125 -4.078125,9.59375 -4.078125,3.390625 -11.453125,3.390625 -4.6875,0 -9.140625,-1.125 -4.4375,-1.125 -8.53125,-3.375 v 8.3125 q 4.921875,1.90625 9.5625,2.84375 Q 24.21875,56 28.609375,56 q 11.875,0 17.734375,-6.15625 5.859375,-6.140625 5.859375,-18.640625 z"
       id="DejaVuSans-61" />
    <path
       d="M 54.890625,33.015625 V 0 H 45.90625 v 32.71875 q 0,7.765625 -3.03125,11.609375 -3.03125,3.859375 -9.078125,3.859375 -7.28125,0 -11.484375,-4.640625 -4.203125,-4.625 -4.203125,-12.640625 V 0 h -9.03125 v 54.6875 h 9.03125 v -8.5 q 3.234375,4.9375 7.59375,7.375 4.375,2.4375 10.09375,2.4375 9.421875,0 14.25,-5.828125 4.84375,-5.828125 4.84375,-17.15625 z"
       id="DejaVuSans-6e" />
    <path
       d="M 54.890625,33.015625 V 0 H 45.90625 v 32.71875 q 0,7.765625 -3.03125,11.609375 -3.03125,3.859375 -9.078125,3.859375 -7.28125,0 -11.484375,-4.640625 -4.203125,-4.625 -4.203125,-12.640625 V 0 h -9.03125 v 75.984375 h 9.03125 V 46.1875 q 3.234375,4.9375 7.59375,7.375 4.375,2.4375 10.09375,2.4375 9.421875,0 14.25,-5.828125 4.84375,-5.828125 4.84375,-17.15625 z"
       id="DejaVuSans-68" />
    <path
       d="M 60.015625,54.6875 34.90625,27.875 50.296875,0 h -10.3125 L 28.421875,21.6875 8.296875,0 H -2.59375 L 24.3125,28.8125 10.015625,54.6875 H 20.3125 l 10.5,-19.78125 18.3125,19.78125 z"
       id="DejaVuSans-Oblique-78" />
  </defs>
  <g
     inkscape:label="Camada 1"
     inkscape:groupmode="layer"
     id="layer1"
     transform="translate(-56.905296,-20.342151)">
    <g
       id="line2d_33"
       style="stroke-linecap:butt;stroke-linejoin:round;fill-opacity:1;fill:none;stroke:#00ff00;stroke-opacity:1"
       transform="matrix(0.35277777,0,0,0.35277777,35.985073,8.1778451)">
      <path
         clip-path="url(#p2872ca5c69)"
         d="m 60.063494,232.91636 3.07438,-0.0499 3.074381,-0.0567 3.07438,-0.0643 3.07438,-0.073 3.07438,-0.0828 3.07438,-0.0939 3.07438,-0.10649 3.074381,-0.12076 3.07438,-0.13693 3.07438,-0.15523 3.07438,-0.17594 3.07438,-0.19937 3.074384,-0.22587 3.07438,-0.25581 3.07438,-0.28962 3.07438,-0.32779 3.07438,-0.37082 3.07438,-0.41932 3.07438,-0.47388 3.07438,-0.53523 3.07438,-0.60411 3.07438,-0.68132 3.07438,-0.76773 3.07438,-0.86425 3.07438,-0.97183 3.07438,-1.09142 3.07438,-1.22404 3.07438,-1.3706 3.07438,-1.53203 3.07438,-1.70911 3.07438,-1.90248 3.07438,-2.11258 3.07438,-2.33954 3.07438,-2.58312 3.07438,-2.84266 3.07438,-3.11689 3.07438,-3.40397 3.07438,-3.70132 3.07438,-4.00565 3.07438,-4.31281 3.07438,-4.61799 3.07438,-4.91563 3.07438,-5.19967 3.07438,-5.46368 3.07438,-5.70112 3.07438,-5.90569 3.07438,-6.0716 3.07438,-6.19393 3.07438,-6.2689 3.07438,-6.29416 3.07438,-6.2689 3.07438,-6.19393 3.07438,-6.0716 3.07438,-5.90569 3.07438,-5.70113 3.07438,-5.463671 3.07438,-5.199671 3.07438,-4.915633 3.07438,-4.617987 3.07438,-4.312813 3.07438,-4.005642 3.07438,-3.701328 3.07438,-3.40397 3.07438,-3.116889 3.07439,-2.842652 3.07437,-2.583124 3.07438,-2.339537 3.07439,-2.112579 3.07438,-1.902482 3.07438,-1.709108 3.07438,-1.53203 3.07438,-1.370605 3.07438,-1.224035 3.07438,-1.091427 3.07438,-0.971824 3.07438,-0.864249 3.07438,-0.767732 3.07438,-0.681322 3.07438,-0.604109 3.07438,-0.535233 3.07438,-0.473883 3.07438,-0.419312 3.07438,-0.370824 3.07438,-0.327787 3.07438,-0.289624 3.07438,-0.255809 3.07438,-0.225868 3.07438,-0.199373 3.07438,-0.175941 3.07438,-0.155229 3.07438,-0.136926 3.07438,-0.120762 3.07438,-0.106488 3.07438,-0.09389 3.07438,-0.08277 3.07438,-0.07296 3.07438,-0.06431 3.07438,-0.05668 3.07438,-0.04995"
         style="fill:none;stroke:#00ff00;stroke-width:4.61763789;stroke-linecap:square;stroke-linejoin:round;fill-opacity:1;stroke-opacity:1;stroke-dasharray:none"
         id="path478" />
    </g>
  </g>
</svg>
